<?xml version="1.0" encoding="UTF-8" standalone="no"?>
<!-- Created with Inkscape (http://www.inkscape.org/) -->

<svg
   xmlns:dc="http://purl.org/dc/elements/1.1/"
   xmlns:cc="http://creativecommons.org/ns#"
   xmlns:rdf="http://www.w3.org/1999/02/22-rdf-syntax-ns#"
   xmlns:svg="http://www.w3.org/2000/svg"
   xmlns="http://www.w3.org/2000/svg"
   xmlns:sodipodi="http://sodipodi.sourceforge.net/DTD/sodipodi-0.dtd"
   xmlns:inkscape="http://www.inkscape.org/namespaces/inkscape"
   version="1.1"
   id="svg1110"
   xml:space="preserve"
   width="800"
   height="800"
   viewBox="0 0 800 800"
   sodipodi:docname="flower-design-publicdomainvectors.org [Converted].svg"
   inkscape:version="0.92.4 (5da689c313, 2019-01-14)"><metadata
     id="metadata1116"><rdf:RDF><cc:Work
         rdf:about=""><dc:format>image/svg+xml</dc:format><dc:type
           rdf:resource="http://purl.org/dc/dcmitype/StillImage" /><dc:title /></cc:Work></rdf:RDF></metadata><defs
     id="defs1114" /><sodipodi:namedview
     pagecolor="#ffffff"
     bordercolor="#666666"
     borderopacity="1"
     objecttolerance="10"
     gridtolerance="10"
     guidetolerance="10"
     inkscape:pageopacity="0"
     inkscape:pageshadow="2"
     inkscape:window-width="1920"
     inkscape:window-height="1018"
     id="namedview1112"
     showgrid="false"
     inkscape:zoom="1.06125"
     inkscape:cx="243.10954"
     inkscape:cy="400"
     inkscape:window-x="-8"
     inkscape:window-y="-8"
     inkscape:window-maximized="1"
     inkscape:current-layer="g1118" /><g
     id="g1118"
     inkscape:groupmode="layer"
     inkscape:label="flower-design-publicdomainvectors.org [Converted]"
     transform="matrix(1.3333333,0,0,1.3333333,0,2e-5)"><path
       inkscape:connector-curvature="0"
       id="path1122"
       style="fill:#FFFF00;fill-opacity:1;fill-rule:nonzero;stroke:none;stroke-width:1.14381206"
       d="m 479.85198,370.93938 c 4.74568,13.22475 8.21258,28.59073 7.67155,44.57322 -15.03885,5.43767 -30.72622,6.86287 -44.77338,6.42021 0.63024,14.03801 -0.58563,29.74827 -5.80827,44.86375 -15.97334,0.75949 -31.3885,-2.50267 -44.68074,-7.06419 -3.53438,13.59993 -9.32436,28.25102 -18.77454,41.15436 -15.48606,-3.98504 -29.25184,-11.64287 -40.61447,-19.91835 -7.38559,11.9517 -17.23725,24.24768 -30.06511,33.79164 -13.62736,-8.3727 -24.52447,-19.74334 -32.93835,-31.00302 h -0.004 c -10.58025,9.24887 -23.61742,18.09053 -38.69287,23.42984 -10.54823,-12.01917 -17.61242,-26.10179 -22.33522,-39.34027 -12.837,5.71906 -27.89872,10.32976 -43.88006,10.98632 -6.54146,-14.59734 -9.13791,-30.13258 -9.74985,-44.17517 -13.9488,1.68026 -29.70366,1.64366 -45.16685,-2.43518 -1.94791,-15.87497 0.15212,-31.49029 3.70366,-45.08678 -13.828694,-2.5061 -28.867531,-7.18886 -42.441149,-15.64277 2.814918,-15.74458 9.422725,-30.04223 16.826621,-41.99049 -12.475557,-6.4694 -25.468121,-15.37855 -35.945439,-27.4595 7.331835,-14.20843 17.858338,-25.92793 28.456896,-35.15963 v -0.004 C 70.627242,257.01832 60.832779,244.67774 54.386254,230.04495 65.583031,218.62513 79.09374,210.53381 91.939896,204.8319 l 0.0042,0.004 c 0,0 0,-0.004 0,-0.004 h -0.0042 c -6.65813,-12.37147 -12.377195,-27.04887 -14.231309,-42.93757 14.065458,-7.60863 29.363943,-11.36148 43.321883,-13.02001 -2.71655,-13.79209 -3.85579,-29.50235 -0.9425,-45.22519 15.6828,-3.12718 31.41022,-2.20184 45.23433,0.32714 1.46523,-13.976244 5.00876,-29.328488 12.42981,-43.496888 15.91042,1.635651 30.66446,7.153401 43.12515,13.645679 5.52232,-12.921646 13.43521,-26.544447 24.69947,-37.897926 14.72201,6.250932 27.19185,15.874968 37.19219,25.749497 l -0.0274,-0.536448 0.0274,0.536448 c 9.0876,-10.718663 20.65954,-21.406442 34.76961,-28.935014 12.22505,10.312609 21.30807,23.183927 27.94789,35.570268 11.8396,-7.569748 26.05261,-14.369711 41.75715,-17.403101 8.64151,13.456949 13.52559,28.434021 16.21926,42.227251 13.54731,-3.740263 29.13175,-6.049614 45.02846,-4.321321 4.29386,15.406005 4.54435,31.160865 3.05626,45.131395 14.04715,0.42093 29.61901,2.80578 44.30098,9.14592 -0.43808,15.98706 -4.83947,31.11169 -10.38352,44.02877 13.30025,4.53863 27.47779,11.40609 39.63994,21.79419 -5.13342,15.1475 -13.7978,28.30477 -22.89911,39.01085 11.37178,8.25718 22.88996,19.00215 31.45026,32.514 -9.36439,12.96168 -21.52655,22.97461 -33.37987,30.52491 8.43104,11.24139 16.27187,24.90537 20.47195,40.33768 -12.77409,9.62403 -27.33939,15.61533 -40.89586,19.33272 z m 33.42563,-57.30727 c 12.53731,-10.52193 21.08502,-21.75874 26.85327,-32.70044 -5.08996,-11.26885 -12.93537,-23.00664 -24.80242,-34.27434 8.87826,-13.74862 13.73032,-27.00997 16.02252,-39.16298 -8.1897,-9.26602 -19.14628,-18.17517 -33.80995,-25.44524 4.43227,-15.75372 5.16546,-29.85006 3.76658,-42.14147 -10.55281,-6.4431 -23.64946,-11.72407 -39.80123,-14.34683 -0.41062,-16.36223 -3.86952,-30.052526 -8.82451,-41.383123 -11.98257,-3.04712 -26.05261,-4.235541 -42.26271,-1.979935 -5.2135,-15.512384 -12.55448,-27.57617 -20.62866,-36.94056 -12.34973,0.62109 -26.14182,3.631604 -40.97134,10.561961 C 339.26604,42.536063 328.6995,33.17053 318.2176,26.598186 306.60105,30.833722 294.3085,37.777805 282.18295,48.77327 269.13663,38.894166 256.27676,33.063011 244.32964,29.868345 c -9.85624,7.47138 -19.55576,17.733662 -27.89758,31.812845 -15.3797,-5.598961 -29.38682,-7.38102 -41.74914,-6.907481 -7.21174,10.043814 -13.4581,22.705816 -17.283,38.621957 -16.34393,-0.813245 -30.25269,1.608201 -41.92301,5.70534 -3.93699,11.724074 -6.17086,25.663714 -5.13342,41.999634 -15.857809,4.0388 -28.435168,10.45444 -38.380614,17.80915 -0.304254,12.36233 1.671109,26.34314 7.474809,41.6462 -13.962511,8.53398 -24.090968,18.37305 -31.423946,28.33222 3.351369,11.90252 9.360957,24.68118 19.418497,37.5891 -10.830756,12.26853 -17.604411,24.6583 -21.67867,36.33319 6.710746,10.3881 16.218111,20.82539 29.636171,30.20007 -6.733622,14.91875 -9.557694,28.75544 -10.008356,41.11432 9.476479,7.94378 21.638632,15.11548 37.223079,20.11966 -2.03256,16.24099 -0.65655,30.29273 2.55528,42.23641 11.39808,4.79828 25.13297,8.06845 41.49521,8.25603 2.8458,16.11174 8.30522,29.13632 14.89128,39.60449 12.30971,1.22502 26.3969,0.29968 42.08886,-4.3419 7.47024,14.56072 16.52237,25.39148 25.90506,33.4565 12.11754,-2.45805 25.31142,-7.49311 38.93536,-16.55897 11.42897,11.71493 23.27772,19.4002 34.61747,24.33689 10.85707,-5.91923 21.97835,-14.61907 32.32642,-27.29936 14.37315,7.82368 27.95591,11.67947 40.24731,13.05089 8.63235,-8.85539 16.69738,-20.44564 22.84994,-35.60915 16.03968,3.23927 30.15432,2.91214 42.30732,0.60279 5.639,-11.00463 9.92372,-24.45814 11.3306,-40.76661 16.28674,-1.63107 29.68193,-6.09881 40.6099,-11.88879 2.14008,-12.17588 2.27505,-26.29852 -1.18842,-42.29473 15.0846,-6.35731 26.56275,-14.57445 35.30262,-23.33148 -1.54186,-12.2651 -5.57608,-25.79869 -13.60106,-40.06545 m -66.02885,-20.29352 c 1.7832,3.12833 3.21755,6.14342 4.34305,9.0567 -2.07716,2.32766 -4.48603,4.65189 -7.2552,6.94752 -6.95665,5.76024 -13.75776,8.47221 -20.12422,9.21798 4.57525,4.49061 8.28806,10.80331 10.25427,19.6141 0.78122,3.51264 1.26391,6.82283 1.47895,9.93286 -2.67194,1.61735 -5.65729,3.12261 -8.98121,4.49975 -8.34182,3.45317 -15.64277,4.04338 -21.94633,2.8767 3.04712,5.64356 4.73539,12.76951 4.01593,21.76787 -0.28596,3.58815 -0.8041,6.89033 -1.51898,9.92829 -3.02424,0.75493 -6.32185,1.31882 -9.90542,1.65282 -8.98463,0.8407 -16.13347,-0.75034 -21.81707,-3.72082 1.25133,6.29096 0.75949,13.59992 -2.57814,21.98178 -1.3314,3.34221 -2.79663,6.3493 -4.37395,9.04412 -3.11917,-0.175 -6.43393,-0.60851 -9.95459,-1.34055 -8.83824,-1.84612 -15.20127,-5.47314 -19.75363,-9.98663 -0.66113,6.37561 -3.27932,13.21676 -8.94004,20.24434 -2.26132,2.80234 -4.54894,5.24094 -6.85029,7.35014 -2.9213,-1.08549 -5.96841,-2.47521 -9.11389,-4.21724 -7.90032,-4.36593 -12.91365,-9.70524 -15.93331,-15.36139 -2.51067,5.89748 -7.0333,11.66115 -14.51269,16.70994 -2.9842,2.0154 -5.88835,3.66821 -8.70784,5.00418 -2.4752,-1.89873 -4.97672,-4.12344 -7.47023,-6.71532 -6.26466,-6.50028 -9.47191,-13.08178 -10.69693,-19.37274 -4.13717,4.89665 -10.15592,9.06585 -18.79169,11.68861 -3.44516,1.04087 -6.71189,1.76834 -9.79904,2.21557 -1.80493,-2.5427 -3.53438,-5.40566 -5.15631,-8.6232 -4.0651,-8.05588 -5.20091,-15.28935 -4.50776,-21.66495 -5.39765,3.45775 -12.37605,5.67446 -21.40645,5.63327 -3.59614,-0.0217 -6.92921,-0.29053 -10.01292,-0.77207 -0.97796,-2.96247 -1.78663,-6.20633 -2.39057,-9.75901 -1.50526,-8.9 -0.45524,-16.14719 2.08288,-22.03095 -6.18002,1.71571 -13.50271,1.77291 -22.11675,-0.92993 -3.43144,-1.0809 -6.53689,-2.3185 -9.34266,-3.6865 -0.0584,-3.1226 0.12468,-6.46025 0.59364,-10.02551 1.18041,-8.94919 4.32132,-15.56729 8.4848,-20.44565 -6.41107,-0.17843 -13.42607,-2.28304 -20.86084,-7.40389 -2.96248,-2.04628 -5.56694,-4.14632 -7.84084,-6.27724 0.8613,-2.99794 2.02341,-6.13884 3.52524,-9.41015 3.76656,-8.20341 8.71698,-13.59535 14.12721,-17.03136 -6.07135,-2.06001 -12.153,-6.13883 -17.74739,-13.2259 -2.22929,-2.82407 -4.09712,-5.59781 -5.64242,-8.30979 1.70657,-2.61018 3.73912,-5.2684 6.13885,-7.9495 6.01873,-6.7279 12.33601,-10.42813 18.52403,-12.11182 -5.19634,-3.76314 -9.80705,-9.45017 -13.06348,-17.86863 -1.29594,-3.35481 -2.26589,-6.55862 -2.94074,-9.60574 2.39972,-1.99251 5.12542,-3.93127 8.20799,-5.78654 7.73446,-4.65989 14.86498,-6.32643 21.27263,-6.11596 -3.85236,-5.12543 -6.58608,-11.91624 -7.21632,-20.92376 -0.2505,-3.58814 -0.2322,-6.93493 0.0229,-10.04381 2.87668,-1.193 6.0542,-2.24302 9.54739,-3.11003 8.76161,-2.1721 16.06714,-1.66195 22.13049,0.42436 -2.17554,-6.03247 -2.77947,-13.3277 -0.72861,-22.12132 0.81782,-3.50236 1.82323,-6.6936 2.98077,-9.59316 3.10431,-0.29053 6.45109,-0.35687 10.04382,-0.15556 9.01209,0.50899 15.84294,3.14548 21.01754,6.92921 -0.29968,-6.40192 1.27306,-13.55531 5.82658,-21.35268 1.81408,-3.10545 3.71281,-5.86204 5.67445,-8.28807 3.05512,0.63483 6.27266,1.55902 9.64119,2.81035 8.46306,3.14092 14.21758,7.67612 18.04707,12.81871 1.60363,-6.20633 5.21349,-12.58194 11.8579,-18.68532 2.64907,-2.43518 5.27641,-4.50777 7.86371,-6.25093 2.7337,1.51098 5.53604,3.33764 8.39101,5.5269 7.15797,5.50059 11.31687,11.52848 13.46151,17.56896 3.36052,-5.46056 8.69069,-10.4819 16.84035,-14.36056 3.253,-1.5453 6.37103,-2.74745 9.36096,-3.64991 2.16181,2.24301 4.2973,4.8166 6.38018,7.75161 5.22265,7.36386 7.42105,14.35141 7.68871,20.75447 4.82117,-4.22753 11.39351,-7.45765 20.33011,-8.75817 3.55611,-0.51814 6.89376,-0.75034 10.01751,-0.72747 1.40688,2.7829 2.6891,5.87005 3.81119,9.28891 2.81835,8.57401 2.86295,15.89669 1.23302,22.09844 5.85289,-2.61819 13.08178,-3.76656 22.00008,-2.37684 3.55611,0.54904 6.81369,1.3131 9.7899,2.25217 0.52729,3.078 0.84412,6.4065 0.90704,10.00378 0.16471,9.02468 -1.9525,16.0351 -5.33932,21.47736 6.36189,-0.7778 13.61365,0.25964 21.72785,4.2138 3.2347,1.57732 6.12055,3.26559 8.68955,5.03964 -0.40606,3.09172 -1.08548,6.37103 -2.08174,9.82534 -2.50152,8.67696 -6.59065,14.74832 -11.43355,18.95297 6.31384,1.13466 12.93537,4.25841 19.52029,10.42814 2.62734,2.46262 4.88866,4.92868 6.81827,7.37758 -1.29937,2.83666 -2.91329,5.7671 -4.88294,8.77419 -4.94584,7.55602 -10.64774,12.14843 -16.51435,14.7403 5.69732,2.94418 11.10298,7.88658 15.57986,15.72284 m 21.02212,12.09467 c 20.78993,-6.64783 35.12762,-15.71826 45.00215,-25.31942 -9.26603,-10.18794 -23.02837,-20.11508 -43.37107,-28.0234 17.90295,-12.48356 28.93501,-25.3789 35.53824,-37.45984 -11.8579,-7.00585 -27.93304,-12.43896 -49.70207,-13.99912 13.43065,-17.20636 20.16885,-32.77707 22.91628,-46.27063 -13.39404,-3.19924 -30.35563,-3.6499 -51.61795,1.27421 7.76076,-20.40104 9.61031,-37.26425 8.25603,-50.9717 -13.73832,0.89332 -30.07883,5.46056 -48.95172,16.43315 C 387.74883,99.314894 384.545,82.654132 379.21484,69.955526 366.34695,74.861336 352.07561,84.04386 337.28269,100.08811 332.20186,78.860103 324.23177,63.888747 315.39353,53.321067 304.54105,61.80129 293.61192,74.781269 284.20636,94.476565 273.09994,75.688316 261.06247,63.727469 249.50882,56.238932 241.63596,67.543227 235.01901,83.163124 231.83235,104.75716 215.68058,90.079759 200.65546,82.194321 187.40783,78.444897 c -4.19207,13.122961 -5.91122,29.998763 -2.58731,51.574483 -19.76278,-9.26716 -36.44528,-12.37146 -50.2122,-12.05005 -0.1384,13.77493 3.19467,30.40938 12.72948,50.04635 -21.61575,-3.03454 -38.46983,-1.08205 -51.528727,3.28846 3.926701,13.19845 12.013457,28.11262 26.915037,44.06307 -21.54942,3.47605 -37.0801,10.31261 -48.272295,18.33302 7.64409,11.45528 19.766212,23.32233 38.705455,34.17481 -19.564906,9.67437 -32.392763,20.78079 -40.725431,31.74537 10.683204,8.69526 25.766656,16.4606 47.062151,21.25088 -15.84408,15.01253 -24.828732,29.40398 -29.556109,42.33821 12.769519,5.15631 29.474899,8.13594 51.234779,6.42937 -10.71866,19.01587 -15.05715,35.41814 -15.76746,49.17477 13.72575,1.16211 30.56038,-0.91963 50.8539,-8.95835 -4.63702,21.33096 -3.94959,38.28226 -0.57191,51.63741 13.45809,-2.93503 28.93501,-9.88826 45.95837,-23.5511 1.85411,21.74616 7.51141,37.74581 14.66824,49.50991 11.99745,-6.76908 24.73952,-17.975 36.97716,-36.04724 8.18169,20.23518 18.30099,33.85341 28.6136,42.98217 9.4639,-10.00378 18.33645,-24.46728 24.70405,-45.34185 13.78408,16.92041 27.46865,26.95622 40.01055,32.63867 6.09881,-12.34973 10.31719,-28.78288 10.24512,-50.6091 18.15803,12.10839 34.19427,17.66274 47.85253,19.39562 2.18926,-13.59649 1.37143,-30.54322 -5.12886,-51.38233 20.92376,6.22005 37.87963,6.80111 51.4441,4.4277 -1.91588,-13.63538 -7.6887,-29.58699 -20.04303,-47.58372 21.82623,-0.22763 38.20104,-4.66905 50.46614,-10.93371 -5.85289,-12.46526 -16.07628,-26.008 -33.18428,-39.56446 M 333.33767,274.60867 c -2.97621,1.34055 -5.88949,2.89155 -8.60606,4.68276 l 13.19845,2.4043 c 1.30052,-0.26879 2.65479,-0.49642 4.07541,-0.70687 8.47564,-1.22846 15.75372,1.02371 21.55742,5.37591 -6.96467,2.01883 -14.56987,1.5636 -22.07213,-2.57357 -1.25019,-0.69773 -2.43861,-1.39432 -3.5607,-2.09547 l -13.19845,-2.4043 c 1.90788,2.63192 4.08799,5.1117 6.40307,7.4119 -3.23927,0.40263 -6.47855,1.02372 -9.6023,1.93534 l 11.90365,6.18802 c 1.31767,0.12925 2.68452,0.30883 4.09714,0.5273 8.46649,1.32682 14.75745,5.6207 19.0193,11.4873 -7.25063,-0.12123 -14.38229,-2.8012 -20.32897,-8.9629 -0.99626,-1.03172 -1.92618,-2.04629 -2.78747,-3.0517 l -11.90365,-6.18802 c 1.04544,3.078 2.40429,6.08508 3.93242,8.97206 -3.21296,-0.56848 -6.49227,-0.93449 -9.74527,-0.98368 0.0938,3.253 0.50098,6.52773 1.11292,9.73156 -2.89956,-1.49268 -5.92952,-2.8012 -9.02125,-3.81119 l 6.34931,11.82244 c 1.01456,0.84872 2.0417,1.76491 3.08715,2.7383 6.24635,5.8666 9.02582,12.96167 9.24428,20.20886 -5.9238,-4.18177 -10.30803,-10.4144 -11.75038,-18.85917 -0.23677,-1.41147 -0.4335,-2.77489 -0.58105,-4.08799 l -6.35388,-11.82244 c -0.86701,3.13177 -1.44234,6.38476 -1.80036,9.62861 -2.33681,-2.27847 -4.8429,-4.4277 -7.50227,-6.30011 v -0.004 c -1.75116,2.744 -3.261,5.67903 -4.56151,8.67238 -1.55445,-2.86868 -3.31935,-5.65615 -5.30729,-8.22972 -2.48436,2.10004 -4.79028,4.45858 -6.91206,6.93379 -0.64396,-3.19467 -1.51097,-6.38476 -2.65021,-9.43188 l -5.28098,12.33716 c -0.0309,1.32682 -0.10293,2.69825 -0.21847,4.12802 -0.68857,8.53856 -4.50433,15.13263 -10.0358,19.82455 -0.42436,-7.23805 1.72029,-14.55729 7.42105,-20.94664 0.95165,-1.0626 1.89986,-2.068 2.83322,-3.00593 l 5.28098,-12.33716 c -2.98878,1.27879 -5.89292,2.85495 -8.64951,4.59813 0.32599,-3.24386 0.44151,-6.55061 0.24936,-9.79447 l -8.6804,10.23255 c -0.4255,1.25018 -0.89903,2.54155 -1.42634,3.87294 -3.18093,7.95408 -8.76617,13.14126 -15.43688,15.99164 1.72945,-7.04589 5.93409,-13.40433 13.27051,-17.82745 1.22388,-0.74119 2.42145,-1.41605 3.59271,-2.03713 l 8.6804,-10.23255 c -3.23471,0.33514 -6.46941,0.98826 -9.62404,1.84154 1.2742,-3.00708 2.35511,-6.12626 3.12833,-9.28432 l -11.31346,7.21516 c -0.76864,1.07748 -1.60361,2.1721 -2.5015,3.28389 -5.3805,6.66156 -12.2468,9.96832 -19.46312,10.72781 3.73112,-6.2189 9.61946,-11.05838 17.9304,-13.12181 1.39431,-0.34429 2.73372,-0.64397 4.03422,-0.88989 l 11.31346,-7.21516 c -3.1901,-0.63025 -6.47398,-0.96538 -9.73614,-1.08205 2.10004,-2.49236 4.05711,-5.15973 5.72364,-7.94835 l -12.93537,3.56069 c -1.0546,0.80067 -2.17553,1.6002 -3.36395,2.40429 -7.10879,4.78113 -14.63736,5.9158 -21.75988,4.51234 h 0.004 c 5.39307,-4.8429 12.44811,-7.72988 21.0004,-7.25635 1.42976,0.0812 2.80119,0.19217 4.11886,0.33972 l 12.93538,-3.56069 c -2.86412,-1.54644 -5.90208,-2.82864 -8.9858,-3.9004 2.74401,-1.76948 5.39308,-3.73569 7.8111,-5.90664 l -13.01087,-0.40262 13.01087,0.39805 c -2.27962,-2.31508 -4.80859,-4.44143 -7.43478,-6.37561 3.14091,-0.88074 6.25436,-1.97995 9.20769,-3.34223 l -12.69289,-4.34762 c -1.32339,0.0675 -2.69939,0.0984 -4.13374,0.0892 -8.56486,-0.0491 -15.42773,-3.35937 -20.52112,-8.52483 7.18885,-0.96538 14.64194,0.62566 21.44189,5.83573 1.13467,0.87044 2.20756,1.73745 3.21297,2.59989 l 12.69289,4.34762 c -1.49611,-2.89156 -3.28846,-5.66072 -5.22722,-8.28349 3.26215,0.0801 6.55862,-0.0491 9.78531,-0.48268 -0.58106,-3.20382 -1.4698,-6.38019 -2.55643,-9.45933 3.09173,1.04087 6.2864,1.89072 9.49021,2.42602 l -8.03756,-10.74039 c -1.13009,-0.69315 -2.28305,-1.44349 -3.46232,-2.25674 -7.0516,-4.86578 -10.85821,-11.46443 -12.153,-18.60525 6.48312,3.253 11.74123,8.76617 14.4269,16.90325 0.44608,1.35771 0.84413,2.67652 1.18842,3.95874 l 8.04214,10.74039 c 0.3889,-3.23011 0.47354,-6.53231 0.34429,-9.79332 2.64907,1.90788 5.4514,3.65906 8.35555,5.11514 l -4.51806,-12.63455 c -0.87501,-0.99283 -1.75575,-2.04628 -2.63992,-3.17294 -5.30386,-6.72904 -6.99669,-14.15924 -6.13084,-21.36183 5.23753,5.02248 8.63694,11.84074 8.80279,20.40561 0.0309,1.42976 0.0172,2.80577 -0.0274,4.12916 l 4.51805,12.63455 c 1.32225,-2.97048 2.37684,-6.09881 3.2164,-9.25231 1.96621,2.60447 4.12802,5.10256 6.47397,7.349 l -0.58905,-13.40319 c -0.55018,-1.20672 -1.07748,-2.47521 -1.59562,-3.81118 -3.078,-7.9941 -2.50609,-15.59359 0.44266,-22.21969 3.52064,6.34015 4.76283,13.85956 2.39857,22.0893 -0.39233,1.376 -0.81326,2.69024 -1.24561,3.94157 l 0.58905,13.40319 c 2.14466,-2.44776 4.07541,-5.12428 5.80371,-7.89459 1.11293,3.06999 2.44433,6.09423 4.02622,8.93203 l 3.38226,-12.98456 c -0.16586,-1.30852 -0.29968,-2.68109 -0.39805,-4.11085 -0.58907,-8.54657 2.1984,-15.63821 6.97039,-21.09762 1.49724,7.09506 0.46896,14.64651 -4.21723,21.81707 -0.78695,1.19758 -1.56932,2.32766 -2.35511,3.3914 l -3.38226,12.98456 c 2.76573,-1.70772 5.40222,-3.69566 7.86828,-5.83115 0.16014,3.26215 0.53989,6.54146 1.21016,9.7224 l 7.05961,-11.41182 c 0.23218,-1.30395 0.51013,-2.64907 0.83612,-4.04337 1.95707,-8.34182 6.71075,-14.29766 12.87703,-18.10883 -0.66226,7.22545 -3.86951,14.13294 -10.46015,19.60608 -1.10379,0.91161 -2.18468,1.76033 -3.24843,2.54612 l -7.06387,11.41152 c 3.15006,-0.81782 6.25093,-1.93876 9.24086,-3.253 -0.80524,3.16379 -1.41261,6.40763 -1.70771,9.64691 l 10.1113,-8.81993 c 0.60393,-1.17927 1.26506,-2.38599 1.98795,-3.62361 4.33047,-7.39016 10.62601,-11.68403 17.64444,-13.50727 -2.76116,6.70731 -7.8637,12.36347 -15.7766,15.64735 -1.32225,0.55018 -2.60446,1.04545 -3.85579,1.48353 l -10.1113,8.81993 c 3.24843,0.14755 6.54604,-0.0138 9.78989,-0.38432 -1.702,2.78404 -3.23928,5.70533 -4.47688,8.71242 3.06541,1.0992 6.26008,1.91702 9.47191,2.51982 -2.45234,2.15837 -4.78114,4.49518 -6.84458,7.00584 l 13.31855,-1.5899 c 1.16211,-0.63481 2.39056,-1.26047 3.68651,-1.87242 7.73903,-3.67277 15.35682,-3.6682 22.18309,-1.22388 -6.05763,3.98962 -13.46153,5.7854 -21.84796,4.04795 -1.40345,-0.29509 -2.73943,-0.61308 -4.02164,-0.95165 l -13.31855,1.5899 c 2.59531,1.95249 5.41481,3.67736 8.3018,5.19634 m -6.3047,35.1768 c -0.64396,-1.27764 -1.23303,-2.5244 -1.76033,-3.73569 1.2193,0.51471 2.47064,1.08662 3.75742,1.71229 7.69443,3.76199 12.44811,9.72239 14.78949,16.58526 -6.89489,-2.24758 -12.91707,-6.91662 -16.78658,-14.56186 m -20.92375,34.82335 c -4.4277,-5.74537 -6.77824,-12.99712 -5.6653,-21.49108 0.18301,-1.41603 0.40147,-2.77375 0.64739,-4.07425 0.71946,1.11292 1.42977,2.28762 2.14007,3.5298 4.24012,7.44393 4.80287,15.04341 2.87784,22.03553 m -86.57285,-73.48077 -0.48613,-0.0126 0.48613,0.0126 c 6.58607,-3.03796 14.17754,-3.71282 22.21053,-0.74119 1.34056,0.49527 2.61819,1.01456 3.83406,1.53729 -1.24217,0.45523 -2.55184,0.88874 -3.92327,1.30394 -8.19884,2.47521 -15.73199,1.33598 -22.12132,-2.10004 m 32.63067,-28.60446 c 0.8304,1.17127 1.59448,2.31051 2.3002,3.43145 -1.28221,-0.326 -2.60445,-0.70573 -3.97131,-1.13467 -8.16797,-2.56899 -13.7532,-7.75618 -17.09542,-14.19013 7.1534,1.19757 13.80695,4.91496 18.76653,11.89335 m 106.31618,1.3314 c -4.61528,5.59896 -11.16131,9.49936 -19.69072,10.30804 -1.42519,0.13383 -2.79662,0.22418 -4.11886,0.27681 0.91962,-0.95166 1.90787,-1.90788 2.9659,-2.8767 6.31384,-5.78654 13.59649,-8.03413 20.84368,-7.70815 m 22.00924,18.92666 c 3.06541,-6.58949 6.46482,-10.67405 6.46482,-10.67405 0,0 3.15007,-3.44859 8.41388,-7.1797 -6.42936,-0.50901 -10.90166,-1.86328 -10.90166,-1.86328 0,0 -5.00876,-1.76948 -11.01835,-5.86204 0.98711,-7.20258 3.02882,-12.10381 3.02882,-12.10381 0,0 1.99709,-4.22639 5.92952,-9.34266 -6.29555,1.40803 -10.97373,1.43433 -10.97373,1.43433 0,0 -5.30729,-0.21503 -12.25138,-2.3551 -1.17927,-7.17056 -0.67485,-12.45612 -0.67485,-12.45612 0,0 0.66227,-4.629 2.90872,-10.67863 -5.59782,3.20382 -10.05754,4.60614 -10.05754,4.60614 0,0 -5.13801,1.36342 -12.40236,1.36342 -3.23927,-6.51057 -4.31675,-11.71149 -4.31675,-11.71149 0,0 -0.73204,-4.61528 -0.36601,-11.0538 -4.41054,4.70908 -8.25718,7.36386 -8.25718,7.36386 0,0 -4.50319,2.81493 -11.44727,4.95957 -5.01676,-5.26382 -7.57776,-9.91457 -7.57776,-9.91457 0,0 -2.05886,-4.20007 -3.60987,-10.46015 -2.82407,5.79912 -5.71448,9.47191 -5.71448,9.47191 0,0 -3.47605,4.01706 -9.48106,8.10962 -6.34473,-3.54696 -10.16049,-7.24261 -10.16049,-7.24261 0,0 -3.20838,-3.40399 -6.53231,-8.92632 -0.99168,6.37103 -2.67194,10.73583 -2.67194,10.73583 0,0 -2.14007,4.8612 -6.67072,10.5448 -7.10421,-1.52356 -11.8396,-3.92786 -11.8396,-3.92786 0,0 -4.07082,-2.30477 -8.87369,-6.60779 0.92878,6.38018 0.60737,11.04922 0.60737,11.04922 0,0 -0.60737,5.27755 -3.261,12.04206 -7.24377,0.63824 -12.47557,-0.25965 -12.47557,-0.25965 0,0 -4.56609,-1.00541 -10.42813,-3.69909 2.77489,5.82086 3.84206,10.37438 3.84206,10.37438 0,0 0.96995,5.22264 0.42893,12.46983 -6.72791,2.74859 -11.9963,3.43144 -11.9963,3.43144 0,0 -4.65989,0.38432 -11.0538,-0.46439 4.36593,4.74911 6.72905,8.78448 6.72905,8.78448 0,0 2.46605,4.7045 4.0834,11.78584 -5.62069,4.61185 -10.44986,6.81826 -10.44986,6.81826 0,0 -4.34306,1.7386 -10.70151,2.81493 5.57151,3.24842 9.02124,6.4122 9.02124,6.4122 0,0 3.73913,3.76658 7.37645,10.05754 -4.01249,6.06335 -7.98038,9.59202 -7.98038,9.59202 0,0 -3.6316,2.94531 -9.39183,5.84945 6.28295,1.45607 10.50477,3.46232 10.50477,3.46232 0,0 4.69191,2.49808 10.0175,7.43935 -2.04627,6.97497 -4.79829,11.51361 -4.79829,11.51361 0,0 -2.60561,3.88782 -7.25177,8.35555 6.43394,-0.45066 11.06295,0.21847 11.06295,0.21847 0,0 5.2135,1.00083 11.76411,4.15546 0.0938,7.27007 -1.193,12.42181 -1.193,12.42181 0,0 -1.34512,4.47687 -4.46773,10.1193 6.01302,-2.32765 10.63288,-3.05626 10.63288,-3.05626 0,0 5.28212,-0.57534 12.46641,0.50556 2.23844,6.91663 2.52439,12.21935 2.52439,12.21935 0,0 0.0355,4.67361 -1.28221,10.98746 5.05793,-3.99877 9.25802,-6.0542 9.25802,-6.0542 0,0 4.87378,-2.10919 12.06263,-3.1901 4.17377,5.95126 6.0096,10.93256 6.0096,10.93256 0,0 1.4126,4.45972 2.01081,10.87537 3.65906,-5.31186 7.06419,-8.51111 7.06419,-8.51111 0,0 4.0388,-3.45431 10.58483,-6.6078 l 1.72488,-16.29131 c -2.53812,-6.79539 -2.64564,-14.41319 0.91962,-22.2014 0.59478,-1.30051 1.20214,-2.54155 1.81866,-3.70824 0.36259,1.27306 0.69772,2.60446 1.00541,4.00792 1.8587,8.36012 0.16128,15.79032 -3.74369,21.90172 l -1.72488,16.29131 c 5.74537,4.45401 8.97207,8.67581 8.97207,8.67581 0,0 2.65822,3.84321 5.12427,9.80361 1.93076,-6.15256 4.24012,-10.21881 4.24012,-10.21881 0,0 2.84122,-4.48603 8.16796,-9.43187 6.79996,2.55985 11.12471,5.64357 11.12471,5.64357 0,0 3.67736,2.8904 7.7928,7.85913 0.0263,-6.45225 1.04087,-11.01377 1.04087,-11.01377 0,0 1.38973,-5.12885 5.02248,-11.4244 7.2552,0.44609 12.29598,2.1172 12.29598,2.1172 0,0 4.36936,1.67569 9.76243,5.21007 -1.87699,-6.17087 -2.25217,-10.83076 -2.25217,-10.83076 0,0 -0.18301,-5.30843 1.43435,-12.39435 7.06418,-1.71571 12.37146,-1.59905 12.37146,-1.59905 0,0 4.66447,0.31226 10.86165,2.10004 -3.60988,-5.34389 -5.34389,-9.68694 -5.34389,-9.68694 0,0 -1.73745,-5.01791 -2.28306,-12.26968 6.24636,-3.71739 11.34891,-5.17346 11.34891,-5.17346 0,0 4.55352,-1.07633 11.00004,-1.193 -5.02134,-4.04337 -7.96093,-7.68526 -7.96093,-7.68526 0,0 -3.14205,-4.28472 -5.80027,-11.04466 4.87492,-5.39764 9.3255,-8.29721 9.3255,-8.29721 0,0 4.02964,-2.36312 10.15477,-4.37852 -5.9913,-2.38141 -9.86882,-4.99044 -9.86882,-4.99044 0,0 -4.26299,-3.17294 -8.7982,-8.85197" /></g></svg>